<?xml version="1.0" standalone="no"?><!DOCTYPE svg PUBLIC "-//W3C//DTD SVG 1.1//EN" "http://www.w3.org/Graphics/SVG/1.1/DTD/svg11.dtd"><svg t="1740636134992" class="icon" viewBox="0 0 1024 1024" version="1.1" xmlns="http://www.w3.org/2000/svg" p-id="13400" xmlns:xlink="http://www.w3.org/1999/xlink" width="200" height="200"><path d="M811.52 244.48A288 288 0 0 0 384 627.84l-220.8 219.84a32 32 0 0 0 0 45.12 32 32 0 0 0 22.72 9.28 32 32 0 0 0 22.4-9.28l219.84-220.8a288 288 0 0 0 384-428.48zM768 608a224 224 0 1 1 0-316.8 224 224 0 0 1 0 316.8z" p-id="13401" fill="#bfbfbf"></path><path d="M743.68 312.32a192 192 0 1 0-271.36 271.36 192 192 0 1 0 271.36-271.36z m-45.12 226.24a131.2 131.2 0 0 1-181.12 0 128 128 0 1 1 181.12 0z" p-id="13402" fill="#bfbfbf"></path><path d="M540.16 380.16a96 96 0 0 0 0 135.68 96 96 0 0 0 135.68 0 96 96 0 1 0-135.68-135.68z m90.56 90.56a32 32 0 0 1-45.44-45.44 32 32 0 0 1 45.44 0 32 32 0 0 1 0 45.44z" p-id="13403" fill="#bfbfbf"></path></svg>